<svg version="1.1" id="Layer_1" xmlns="http://www.w3.org/2000/svg" x="0" y="0" viewBox="0 0 100 50" xml:space="preserve"><style>.st0{fill:#fff}</style><path class="st0" d="M21.9 4.8h56.2c.7 0 1.3-1.1 1.3-2.4 0-1.3-.6-2.4-1.3-2.4H21.9c-.7 0-1.3 1.1-1.3 2.4 0 1.3.6 2.4 1.3 2.4zM21.9 16.1h38.5c.7 0 1.3-1.1 1.3-2.4 0-1.3-.6-2.4-1.3-2.4H21.9c-.7 0-1.3 1.1-1.3 2.4 0 1.3.6 2.4 1.3 2.4zM21.9 38.7h38.5c.7 0 1.3-1.1 1.3-2.4 0-1.3-.6-2.4-1.3-2.4H21.9c-.7 0-1.3 1.1-1.3 2.4 0 1.3.6 2.4 1.3 2.4zM78.1 22.6H21.9c-.7 0-1.3 1.1-1.3 2.4 0 1.3.6 2.4 1.3 2.4h56.2c.7 0 1.3-1.1 1.3-2.4 0-1.3-.6-2.4-1.3-2.4zM78.1 45.2H21.9c-.7 0-1.3 1.1-1.3 2.4 0 1.3.6 2.4 1.3 2.4h56.2c.7 0 1.3-1.1 1.3-2.4 0-1.3-.6-2.4-1.3-2.4z"/></svg>