<svg xmlns="http://www.w3.org/2000/svg" viewBox="0 0 363 426"><defs><style>.cls-1{fill:#fff;}.cls-2,.cls-5{fill:#bdc8d5;}.cls-3,.cls-5{opacity:0.4;}.cls-4{fill:#f5f8fa;}</style></defs><title>blog_list_3</title><g id="Layer_2" data-name="Layer 2"><g id="Layer_1-2" data-name="Layer 1"><rect class="cls-1" width="363" height="426" rx="12.57" ry="12.57"/><rect class="cls-2" x="149" y="46" width="173" height="20" rx="3.7" ry="3.7"/><g class="cls-3"><rect class="cls-2" x="149" y="75" width="173" height="9" rx="3.1" ry="3.1"/></g><g class="cls-3"><rect class="cls-2" x="149" y="92" width="173" height="9" rx="3.1" ry="3.1"/></g><rect class="cls-4" x="40" y="46" width="86" height="55.15" rx="2.18" ry="2.18"/><g class="cls-3"><path class="cls-2" d="M103.23,72.56a5.26,5.26,0,0,0-7.42,0L67.21,101.15H123.9a2.11,2.11,0,0,0,2.1-2.1V95.34Z"/></g><circle class="cls-5" cx="60.1" cy="65.16" r="9.82"/><rect class="cls-2" x="149" y="134" width="173" height="20" rx="3.7" ry="3.7"/><g class="cls-3"><rect class="cls-2" x="149" y="163" width="173" height="9" rx="3.1" ry="3.1"/></g><g class="cls-3"><rect class="cls-2" x="149" y="180" width="173" height="9" rx="3.1" ry="3.1"/></g><rect class="cls-4" x="40" y="134" width="86" height="55.15" rx="2.18" ry="2.18"/><g class="cls-3"><path class="cls-2" d="M103.23,160.56a5.26,5.26,0,0,0-7.42,0L67.21,189.15H123.9a2.11,2.11,0,0,0,2.1-2.1v-3.71Z"/></g><circle class="cls-5" cx="60.1" cy="153.16" r="9.82"/><rect class="cls-2" x="149" y="222" width="173" height="20" rx="3.7" ry="3.7"/><g class="cls-3"><rect class="cls-2" x="149" y="251" width="173" height="9" rx="3.1" ry="3.1"/></g><g class="cls-3"><rect class="cls-2" x="149" y="268" width="173" height="9" rx="3.1" ry="3.1"/></g><rect class="cls-4" x="40" y="222" width="86" height="55.15" rx="2.18" ry="2.18"/><g class="cls-3"><path class="cls-2" d="M103.23,248.56a5.26,5.26,0,0,0-7.42,0L67.21,277.15H123.9a2.11,2.11,0,0,0,2.1-2.1v-3.71Z"/></g><circle class="cls-5" cx="60.1" cy="241.16" r="9.82"/><rect class="cls-2" x="149" y="310" width="173" height="20" rx="3.7" ry="3.7"/><g class="cls-3"><rect class="cls-2" x="149" y="339" width="173" height="9" rx="3.1" ry="3.1"/></g><g class="cls-3"><rect class="cls-2" x="149" y="356" width="173" height="9" rx="3.1" ry="3.1"/></g><rect class="cls-4" x="40" y="310" width="86" height="55.15" rx="2.18" ry="2.18"/><g class="cls-3"><path class="cls-2" d="M103.23,336.56a5.26,5.26,0,0,0-7.42,0L67.21,365.15H123.9a2.11,2.11,0,0,0,2.1-2.1v-3.71Z"/></g><circle class="cls-5" cx="60.1" cy="329.16" r="9.82"/></g></g></svg>