<svg xmlns="http://www.w3.org/2000/svg" viewBox="0 0 363 426"><defs><style>.cls-1{fill:#fff;}.cls-2,.cls-5{fill:#bdc8d5;}.cls-3,.cls-5{opacity:0.4;}.cls-4{fill:#f5f8fa;}</style></defs><title>blog_grid_2</title><g id="Layer_2" data-name="Layer 2"><g id="Layer_1-2" data-name="Layer 1"><rect class="cls-1" width="363" height="426" rx="12.57" ry="12.57"/><rect class="cls-2" x="242" y="131" width="87" height="20" rx="2.62" ry="2.62"/><g class="cls-3"><rect class="cls-2" x="242" y="160" width="87" height="9" rx="2.2" ry="2.2"/></g><g class="cls-3"><rect class="cls-2" x="242" y="176" width="87" height="9" rx="2.2" ry="2.2"/></g><rect class="cls-4" x="242" y="67" width="86" height="55.15" rx="2.18" ry="2.18"/><g class="cls-3"><path class="cls-2" d="M305.23,93.56a5.26,5.26,0,0,0-7.42,0l-28.59,28.59H325.9a2.11,2.11,0,0,0,2.1-2.1v-3.71Z"/></g><circle class="cls-5" cx="262.1" cy="86.16" r="9.82"/><rect class="cls-2" x="140" y="131" width="87" height="20" rx="2.62" ry="2.62"/><g class="cls-3"><rect class="cls-2" x="140" y="160" width="87" height="9" rx="2.2" ry="2.2"/></g><g class="cls-3"><rect class="cls-2" x="140" y="176" width="87" height="9" rx="2.2" ry="2.2"/></g><rect class="cls-4" x="140" y="67" width="86" height="55.15" rx="2.18" ry="2.18"/><g class="cls-3"><path class="cls-2" d="M203.23,93.56a5.26,5.26,0,0,0-7.42,0l-28.59,28.59H223.9a2.11,2.11,0,0,0,2.1-2.1v-3.71Z"/></g><circle class="cls-5" cx="160.1" cy="86.16" r="9.82"/><rect class="cls-2" x="38" y="131" width="87" height="20" rx="2.62" ry="2.62"/><g class="cls-3"><rect class="cls-2" x="38" y="160" width="87" height="9" rx="2.2" ry="2.2"/></g><g class="cls-3"><rect class="cls-2" x="38" y="176" width="87" height="9" rx="2.2" ry="2.2"/></g><rect class="cls-4" x="38" y="67" width="86" height="55.15" rx="2.18" ry="2.18"/><g class="cls-3"><path class="cls-2" d="M101.23,93.56a5.26,5.26,0,0,0-7.42,0L65.21,122.15H121.9a2.11,2.11,0,0,0,2.1-2.1v-3.71Z"/></g><circle class="cls-5" cx="58.1" cy="86.16" r="9.82"/><rect class="cls-2" x="242" y="288" width="87" height="20" rx="2.62" ry="2.62"/><g class="cls-3"><rect class="cls-2" x="242" y="317" width="87" height="9" rx="2.2" ry="2.2"/></g><g class="cls-3"><rect class="cls-2" x="242" y="333" width="87" height="9" rx="2.2" ry="2.2"/></g><rect class="cls-4" x="242" y="224" width="86" height="55.15" rx="2.18" ry="2.18"/><g class="cls-3"><path class="cls-2" d="M305.23,250.56a5.26,5.26,0,0,0-7.42,0l-28.59,28.59H325.9a2.11,2.11,0,0,0,2.1-2.1v-3.71Z"/></g><circle class="cls-5" cx="262.1" cy="243.16" r="9.82"/><rect class="cls-2" x="140" y="288" width="87" height="20" rx="2.62" ry="2.62"/><g class="cls-3"><rect class="cls-2" x="140" y="317" width="87" height="9" rx="2.2" ry="2.2"/></g><g class="cls-3"><rect class="cls-2" x="140" y="333" width="87" height="9" rx="2.2" ry="2.2"/></g><rect class="cls-4" x="140" y="224" width="86" height="55.15" rx="2.18" ry="2.18"/><g class="cls-3"><path class="cls-2" d="M203.23,250.56a5.26,5.26,0,0,0-7.42,0l-28.59,28.59H223.9a2.11,2.11,0,0,0,2.1-2.1v-3.71Z"/></g><circle class="cls-5" cx="160.1" cy="243.16" r="9.82"/><rect class="cls-2" x="38" y="288" width="87" height="20" rx="2.62" ry="2.62"/><g class="cls-3"><rect class="cls-2" x="38" y="317" width="87" height="9" rx="2.2" ry="2.2"/></g><g class="cls-3"><rect class="cls-2" x="38" y="333" width="87" height="9" rx="2.2" ry="2.2"/></g><rect class="cls-4" x="38" y="224" width="86" height="55.15" rx="2.18" ry="2.18"/><g class="cls-3"><path class="cls-2" d="M101.23,250.56a5.26,5.26,0,0,0-7.42,0L65.21,279.15H121.9a2.11,2.11,0,0,0,2.1-2.1v-3.71Z"/></g><circle class="cls-5" cx="58.1" cy="243.16" r="9.82"/></g></g></svg>