<svg xmlns="http://www.w3.org/2000/svg" viewBox="0 0 363 426"><defs><style>.cls-1{fill:#fff;}.cls-2,.cls-5{fill:#bdc8d5;}.cls-3,.cls-5{opacity:0.4;}.cls-4{fill:#f5f8fa;}</style></defs><title>blog_grid</title><g id="Layer_2" data-name="Layer 2"><g id="Layer_1-2" data-name="Layer 1"><rect class="cls-1" width="363" height="426" rx="12.57" ry="12.57"/><rect class="cls-2" x="40" y="142" width="131" height="20" rx="3.7" ry="3.7"/><g class="cls-3"><rect class="cls-2" x="40" y="174" width="131" height="9" rx="3.1" ry="3.1"/></g><g class="cls-3"><rect class="cls-2" x="40" y="189" width="131" height="9" rx="3.1" ry="3.1"/></g><rect class="cls-4" x="40" y="46" width="131" height="84.01" rx="3.32" ry="3.32"/><g class="cls-3"><path class="cls-2" d="M136.31,86.46a8,8,0,0,0-11.31,0L81.45,130H167.8a3.21,3.21,0,0,0,3.2-3.2v-5.65Z"/></g><circle class="cls-5" cx="70.61" cy="75.19" r="14.95"/><rect class="cls-2" x="192" y="142" width="131" height="20" rx="3.7" ry="3.7"/><g class="cls-3"><rect class="cls-2" x="192" y="174" width="131" height="9" rx="3.1" ry="3.1"/></g><g class="cls-3"><rect class="cls-2" x="192" y="189" width="131" height="9" rx="3.1" ry="3.1"/></g><rect class="cls-4" x="192" y="46" width="131" height="84.01" rx="3.32" ry="3.32"/><g class="cls-3"><path class="cls-2" d="M288.31,86.46a8,8,0,0,0-11.31,0L233.45,130H319.8a3.21,3.21,0,0,0,3.2-3.2v-5.65Z"/></g><circle class="cls-5" cx="222.61" cy="75.19" r="14.95"/><rect class="cls-2" x="40" y="318" width="131" height="20" rx="3.7" ry="3.7"/><g class="cls-3"><rect class="cls-2" x="40" y="350" width="131" height="9" rx="3.1" ry="3.1"/></g><g class="cls-3"><rect class="cls-2" x="40" y="365" width="131" height="9" rx="3.1" ry="3.1"/></g><rect class="cls-4" x="40" y="222" width="131" height="84.01" rx="3.32" ry="3.32"/><g class="cls-3"><path class="cls-2" d="M136.31,262.46a8,8,0,0,0-11.31,0L81.45,306H167.8a3.21,3.21,0,0,0,3.2-3.2v-5.65Z"/></g><circle class="cls-5" cx="70.61" cy="251.19" r="14.95"/><rect class="cls-2" x="192" y="318" width="131" height="20" rx="3.7" ry="3.7"/><g class="cls-3"><rect class="cls-2" x="192" y="350" width="131" height="9" rx="3.1" ry="3.1"/></g><g class="cls-3"><rect class="cls-2" x="192" y="365" width="131" height="9" rx="3.1" ry="3.1"/></g><rect class="cls-4" x="192" y="222" width="131" height="84.01" rx="3.32" ry="3.32"/><g class="cls-3"><path class="cls-2" d="M288.31,262.46a8,8,0,0,0-11.31,0L233.45,306H319.8a3.21,3.21,0,0,0,3.2-3.2v-5.65Z"/></g><circle class="cls-5" cx="222.61" cy="251.19" r="14.95"/></g></g></svg>