<svg xmlns="http://www.w3.org/2000/svg" viewBox="0 0 363 426"><defs><style>.cls-1{fill:#fff}.cls-2,.cls-5{fill:#bdc8d5}.cls-3,.cls-5{opacity:.4}.cls-4{fill:#f5f8fa}</style></defs><title>blog_grid</title><g id="Layer_2" data-name="Layer 2"><g id="Layer_1-2" data-name="Layer 1"><rect width="363" height="426" class="cls-1" rx="12.57" ry="12.57"/><rect width="131" height="20" x="40" y="142" class="cls-2" rx="3.7" ry="3.7"/><g class="cls-3"><rect width="131" height="9" x="40" y="174" class="cls-2" rx="3.1" ry="3.1"/></g><g class="cls-3"><rect width="131" height="9" x="40" y="189" class="cls-2" rx="3.1" ry="3.1"/></g><rect width="131" height="84.01" x="40" y="46" class="cls-4" rx="3.32" ry="3.32"/><g class="cls-3"><path d="M136.31,86.46a8,8,0,0,0-11.31,0L81.45,130H167.8a3.21,3.21,0,0,0,3.2-3.2v-5.65Z" class="cls-2"/></g><circle cx="70.61" cy="75.19" r="14.95" class="cls-5"/><rect width="131" height="20" x="192" y="142" class="cls-2" rx="3.7" ry="3.7"/><g class="cls-3"><rect width="131" height="9" x="192" y="174" class="cls-2" rx="3.1" ry="3.1"/></g><g class="cls-3"><rect width="131" height="9" x="192" y="189" class="cls-2" rx="3.1" ry="3.1"/></g><rect width="131" height="84.01" x="192" y="46" class="cls-4" rx="3.32" ry="3.32"/><g class="cls-3"><path d="M288.31,86.46a8,8,0,0,0-11.31,0L233.45,130H319.8a3.21,3.21,0,0,0,3.2-3.2v-5.65Z" class="cls-2"/></g><circle cx="222.61" cy="75.19" r="14.95" class="cls-5"/><rect width="131" height="20" x="40" y="318" class="cls-2" rx="3.7" ry="3.7"/><g class="cls-3"><rect width="131" height="9" x="40" y="350" class="cls-2" rx="3.1" ry="3.1"/></g><g class="cls-3"><rect width="131" height="9" x="40" y="365" class="cls-2" rx="3.1" ry="3.1"/></g><rect width="131" height="84.01" x="40" y="222" class="cls-4" rx="3.32" ry="3.32"/><g class="cls-3"><path d="M136.31,262.46a8,8,0,0,0-11.31,0L81.45,306H167.8a3.21,3.21,0,0,0,3.2-3.2v-5.65Z" class="cls-2"/></g><circle cx="70.61" cy="251.19" r="14.95" class="cls-5"/><rect width="131" height="20" x="192" y="318" class="cls-2" rx="3.7" ry="3.7"/><g class="cls-3"><rect width="131" height="9" x="192" y="350" class="cls-2" rx="3.1" ry="3.1"/></g><g class="cls-3"><rect width="131" height="9" x="192" y="365" class="cls-2" rx="3.1" ry="3.1"/></g><rect width="131" height="84.01" x="192" y="222" class="cls-4" rx="3.32" ry="3.32"/><g class="cls-3"><path d="M288.31,262.46a8,8,0,0,0-11.31,0L233.45,306H319.8a3.21,3.21,0,0,0,3.2-3.2v-5.65Z" class="cls-2"/></g><circle cx="222.61" cy="251.19" r="14.95" class="cls-5"/></g></g></svg>