<svg xmlns="http://www.w3.org/2000/svg" viewBox="0 0 363 426"><defs><style>.cls-1{fill:#fff}.cls-2,.cls-5{fill:#bdc8d5}.cls-3,.cls-5{opacity:.4}.cls-4{fill:#f5f8fa}</style></defs><title>blog_list_2</title><g id="Layer_2" data-name="Layer 2"><g id="Layer_1-2" data-name="Layer 1"><rect width="363" height="426" class="cls-1" rx="12.57" ry="12.57"/><rect width="131" height="20" x="191" y="53" class="cls-2" rx="3.7" ry="3.7"/><g class="cls-3"><rect width="131" height="9" x="191" y="85" class="cls-2" rx="3.1" ry="3.1"/></g><g class="cls-3"><rect width="131" height="9" x="191" y="100" class="cls-2" rx="3.1" ry="3.1"/></g><g class="cls-3"><rect width="131" height="9" x="191" y="115" class="cls-2" rx="3.1" ry="3.1"/></g><rect width="131" height="84.01" x="40" y="46" class="cls-4" rx="3.32" ry="3.32"/><g class="cls-3"><path d="M136.31,86.46a8,8,0,0,0-11.31,0L81.45,130H167.8a3.21,3.21,0,0,0,3.2-3.2v-5.65Z" class="cls-2"/></g><circle cx="70.61" cy="75.19" r="14.95" class="cls-5"/><rect width="131" height="20" x="40" y="177" class="cls-2" rx="3.7" ry="3.7"/><g class="cls-3"><rect width="131" height="9" x="40" y="209" class="cls-2" rx="3.1" ry="3.1"/></g><g class="cls-3"><rect width="131" height="9" x="40" y="224" class="cls-2" rx="3.1" ry="3.1"/></g><g class="cls-3"><rect width="131" height="9" x="40" y="239" class="cls-2" rx="3.1" ry="3.1"/></g><rect width="131" height="84.01" x="191" y="170" class="cls-4" rx="3.32" ry="3.32"/><g class="cls-3"><path d="M287.31,210.46a8,8,0,0,0-11.31,0L232.45,254H318.8a3.21,3.21,0,0,0,3.2-3.2v-5.65Z" class="cls-2"/></g><circle cx="221.61" cy="199.19" r="14.95" class="cls-5"/><rect width="131" height="20" x="191" y="301" class="cls-2" rx="3.7" ry="3.7"/><g class="cls-3"><rect width="131" height="9" x="191" y="333" class="cls-2" rx="3.1" ry="3.1"/></g><g class="cls-3"><rect width="131" height="9" x="191" y="348" class="cls-2" rx="3.1" ry="3.1"/></g><g class="cls-3"><rect width="131" height="9" x="191" y="363" class="cls-2" rx="3.1" ry="3.1"/></g><rect width="131" height="84.01" x="40" y="294" class="cls-4" rx="3.32" ry="3.32"/><g class="cls-3"><path d="M136.31,334.46a8,8,0,0,0-11.31,0L81.45,378H167.8a3.21,3.21,0,0,0,3.2-3.2v-5.65Z" class="cls-2"/></g><circle cx="70.61" cy="323.19" r="14.95" class="cls-5"/></g></g></svg>