<svg xmlns="http://www.w3.org/2000/svg" viewBox="0 0 363 426"><defs><style>.cls-2,.cls-5{fill:#bdc8d5}.cls-3,.cls-5{opacity:.4}.cls-4{fill:#f5f8fa}</style></defs><g id="Layer_2" data-name="Layer 2"><g id="Layer_1-2" data-name="Layer 1"><rect width="363" height="426" rx="12.57" ry="12.57" fill="#fff"/><path class="cls-2" d="M94.38 161.85l-55.76.15a2.63 2.63 0 01-2.62-2.62v-14.76a2.63 2.63 0 012.62-2.62l55.75-.15a2.63 2.63 0 012.63 2.62v14.75a2.63 2.63 0 01-2.62 2.63z"/><g class="cls-3"><path class="cls-2" d="M94.8 179.85l-56.6.15a2.2 2.2 0 01-2.2-2.2v-4.6a2.2 2.2 0 012.2-2.2l56.6-.15A2.2 2.2 0 0197 173v4.6a2.2 2.2 0 01-2.2 2.25z"/></g><g class="cls-3"><path class="cls-2" d="M94.8 195.85l-56.6.15a2.2 2.2 0 01-2.2-2.2v-4.6a2.2 2.2 0 012.2-2.2l56.6-.15A2.2 2.2 0 0197 189v4.6a2.2 2.2 0 01-2.2 2.25z"/></g><path class="cls-4" d="M94.82 133l-56.64.15A2.19 2.19 0 0136 131V80.18A2.19 2.19 0 0138.18 78l56.64-.15A2.19 2.19 0 0197 80v50.79a2.19 2.19 0 01-2.18 2.21z"/><g class="cls-3"><path class="cls-2" d="M80.23 114.41a5.26 5.26 0 00-7.42 0L53 133h41.9a2.11 2.11 0 002.1-2.1v-3.71z"/></g><circle class="cls-5" cx="56.1" cy="97.16" r="9.82"/><path class="cls-2" d="M172.38 161.85l-55.75.15a2.63 2.63 0 01-2.62-2.62v-14.76a2.63 2.63 0 012.62-2.62l55.75-.15a2.63 2.63 0 012.62 2.62v14.75a2.63 2.63 0 01-2.62 2.63z"/><g class="cls-3"><path class="cls-2" d="M172.8 179.85l-56.6.15a2.2 2.2 0 01-2.2-2.2v-4.6a2.2 2.2 0 012.2-2.2l56.6-.15A2.2 2.2 0 01175 173v4.6a2.2 2.2 0 01-2.2 2.25z"/></g><g class="cls-3"><path class="cls-2" d="M172.8 195.85l-56.6.15a2.2 2.2 0 01-2.2-2.2v-4.6a2.2 2.2 0 012.2-2.2l56.6-.15A2.2 2.2 0 01175 189v4.6a2.2 2.2 0 01-2.2 2.25z"/></g><path class="cls-4" d="M172.82 133l-56.64.15A2.19 2.19 0 01114 131V80.18a2.19 2.19 0 012.18-2.18l56.64-.15A2.19 2.19 0 01175 80v50.79a2.19 2.19 0 01-2.18 2.21z"/><g class="cls-3"><path class="cls-2" d="M158.23 114.41a5.26 5.26 0 00-7.42 0L131 133h41.9a2.11 2.11 0 002.1-2.1v-3.71z"/></g><circle class="cls-5" cx="134.1" cy="97.16" r="9.82"/><path class="cls-2" d="M250.38 161.85l-55.75.15a2.63 2.63 0 01-2.62-2.62v-14.76a2.63 2.63 0 012.62-2.62l55.75-.15a2.63 2.63 0 012.62 2.62v14.75a2.63 2.63 0 01-2.62 2.63z"/><g class="cls-3"><path class="cls-2" d="M250.8 179.85l-56.6.15a2.2 2.2 0 01-2.2-2.2v-4.6a2.2 2.2 0 012.2-2.2l56.6-.15A2.2 2.2 0 01253 173v4.6a2.2 2.2 0 01-2.2 2.25z"/></g><g class="cls-3"><path class="cls-2" d="M250.8 195.85l-56.6.15a2.2 2.2 0 01-2.2-2.2v-4.6a2.2 2.2 0 012.2-2.2l56.6-.15A2.2 2.2 0 01253 189v4.6a2.2 2.2 0 01-2.2 2.25z"/></g><path class="cls-4" d="M250.82 133l-56.64.15A2.19 2.19 0 01192 131V80.18a2.19 2.19 0 012.18-2.18l56.64-.15A2.19 2.19 0 01253 80v50.79a2.19 2.19 0 01-2.18 2.21z"/><g class="cls-3"><path class="cls-2" d="M236.23 114.41a5.26 5.26 0 00-7.42 0L209 133h41.9a2.11 2.11 0 002.1-2.1v-3.71z"/></g><circle class="cls-5" cx="212.1" cy="97.16" r="9.82"/><path class="cls-2" d="M328.38 161.85l-55.75.15a2.63 2.63 0 01-2.62-2.62v-14.76a2.63 2.63 0 012.62-2.62l55.75-.15a2.63 2.63 0 012.62 2.62v14.75a2.63 2.63 0 01-2.62 2.63z"/><g class="cls-3"><path class="cls-2" d="M328.8 179.85l-56.6.15a2.2 2.2 0 01-2.2-2.2v-4.6a2.2 2.2 0 012.2-2.2l56.6-.15A2.2 2.2 0 01331 173v4.6a2.2 2.2 0 01-2.2 2.25z"/></g><g class="cls-3"><path class="cls-2" d="M328.8 195.85l-56.6.15a2.2 2.2 0 01-2.2-2.2v-4.6a2.2 2.2 0 012.2-2.2l56.6-.15A2.2 2.2 0 01331 189v4.6a2.2 2.2 0 01-2.2 2.25z"/></g><path class="cls-4" d="M328.82 133l-56.64.15A2.19 2.19 0 01270 131V80.18a2.19 2.19 0 012.18-2.18l56.64-.15A2.19 2.19 0 01331 80v50.79a2.19 2.19 0 01-2.18 2.21z"/><g class="cls-3"><path class="cls-2" d="M314.23 114.41a5.26 5.26 0 00-7.42 0L287 133h41.9a2.11 2.11 0 002.1-2.1v-3.71z"/></g><circle class="cls-5" cx="290.1" cy="97.16" r="9.82"/><path class="cls-2" d="M94.38 318.85l-55.76.15a2.63 2.63 0 01-2.62-2.62v-14.76a2.63 2.63 0 012.62-2.62l55.75-.15a2.63 2.63 0 012.63 2.62v14.75a2.63 2.63 0 01-2.62 2.63z"/><g class="cls-3"><path class="cls-2" d="M94.8 336.85l-56.6.15a2.2 2.2 0 01-2.2-2.2v-4.6a2.2 2.2 0 012.2-2.2l56.6-.15A2.2 2.2 0 0197 330v4.6a2.2 2.2 0 01-2.2 2.25z"/></g><g class="cls-3"><path class="cls-2" d="M94.8 352.85l-56.6.15a2.2 2.2 0 01-2.2-2.2v-4.6a2.2 2.2 0 012.2-2.2l56.6-.15A2.2 2.2 0 0197 346v4.6a2.2 2.2 0 01-2.2 2.25z"/></g><path class="cls-4" d="M94.82 290l-56.64.15A2.19 2.19 0 0136 288v-50.82a2.19 2.19 0 012.18-2.18l56.64-.15A2.19 2.19 0 0197 237v50.79a2.19 2.19 0 01-2.18 2.21z"/><g class="cls-3"><path class="cls-2" d="M80.23 271.41a5.26 5.26 0 00-7.42 0L53 290h41.9a2.11 2.11 0 002.1-2.1v-3.71z"/></g><circle class="cls-5" cx="56.1" cy="254.16" r="9.82"/><path class="cls-2" d="M172.38 318.85l-55.75.15a2.63 2.63 0 01-2.62-2.62v-14.76a2.63 2.63 0 012.62-2.62l55.75-.15a2.63 2.63 0 012.62 2.62v14.75a2.63 2.63 0 01-2.62 2.63z"/><g class="cls-3"><path class="cls-2" d="M172.8 336.85l-56.6.15a2.2 2.2 0 01-2.2-2.2v-4.6a2.2 2.2 0 012.2-2.2l56.6-.15A2.2 2.2 0 01175 330v4.6a2.2 2.2 0 01-2.2 2.25z"/></g><g class="cls-3"><path class="cls-2" d="M172.8 352.85l-56.6.15a2.2 2.2 0 01-2.2-2.2v-4.6a2.2 2.2 0 012.2-2.2l56.6-.15A2.2 2.2 0 01175 346v4.6a2.2 2.2 0 01-2.2 2.25z"/></g><path class="cls-4" d="M172.82 290l-56.64.15A2.19 2.19 0 01114 288v-50.82a2.19 2.19 0 012.18-2.18l56.64-.15A2.19 2.19 0 01175 237v50.79a2.19 2.19 0 01-2.18 2.21z"/><g class="cls-3"><path class="cls-2" d="M158.23 271.41a5.26 5.26 0 00-7.42 0L131 290h41.9a2.11 2.11 0 002.1-2.1v-3.71z"/></g><circle class="cls-5" cx="134.1" cy="254.16" r="9.82"/><path class="cls-2" d="M250.38 318.85l-55.75.15a2.63 2.63 0 01-2.62-2.62v-14.76a2.63 2.63 0 012.62-2.62l55.75-.15a2.63 2.63 0 012.62 2.62v14.75a2.63 2.63 0 01-2.62 2.63z"/><g class="cls-3"><path class="cls-2" d="M250.8 336.85l-56.6.15a2.2 2.2 0 01-2.2-2.2v-4.6a2.2 2.2 0 012.2-2.2l56.6-.15A2.2 2.2 0 01253 330v4.6a2.2 2.2 0 01-2.2 2.25z"/></g><g class="cls-3"><path class="cls-2" d="M250.8 352.85l-56.6.15a2.2 2.2 0 01-2.2-2.2v-4.6a2.2 2.2 0 012.2-2.2l56.6-.15A2.2 2.2 0 01253 346v4.6a2.2 2.2 0 01-2.2 2.25z"/></g><path class="cls-4" d="M250.82 290l-56.64.15A2.19 2.19 0 01192 288v-50.82a2.19 2.19 0 012.18-2.18l56.64-.15A2.19 2.19 0 01253 237v50.79a2.19 2.19 0 01-2.18 2.21z"/><g class="cls-3"><path class="cls-2" d="M236.23 271.41a5.26 5.26 0 00-7.42 0L209 290h41.9a2.11 2.11 0 002.1-2.1v-3.71z"/></g><circle class="cls-5" cx="212.1" cy="254.16" r="9.82"/><path class="cls-2" d="M328.38 318.85l-55.75.15a2.63 2.63 0 01-2.62-2.62v-14.76a2.63 2.63 0 012.62-2.62l55.75-.15a2.63 2.63 0 012.62 2.62v14.75a2.63 2.63 0 01-2.62 2.63z"/><g class="cls-3"><path class="cls-2" d="M328.8 336.85l-56.6.15a2.2 2.2 0 01-2.2-2.2v-4.6a2.2 2.2 0 012.2-2.2l56.6-.15A2.2 2.2 0 01331 330v4.6a2.2 2.2 0 01-2.2 2.25z"/></g><g class="cls-3"><path class="cls-2" d="M328.8 352.85l-56.6.15a2.2 2.2 0 01-2.2-2.2v-4.6a2.2 2.2 0 012.2-2.2l56.6-.15A2.2 2.2 0 01331 346v4.6a2.2 2.2 0 01-2.2 2.25z"/></g><path class="cls-4" d="M328.82 290l-56.64.15A2.19 2.19 0 01270 288v-50.82a2.19 2.19 0 012.18-2.18l56.64-.15A2.19 2.19 0 01331 237v50.79a2.19 2.19 0 01-2.18 2.21z"/><g class="cls-3"><path class="cls-2" d="M314.23 271.41a5.26 5.26 0 00-7.42 0L287 290h41.9a2.11 2.11 0 002.1-2.1v-3.71z"/></g><circle class="cls-5" cx="290.1" cy="254.16" r="9.82"/></g></g></svg>