<svg xmlns="http://www.w3.org/2000/svg" viewBox="0 0 13.56 11.21"><defs><style>.cls-1{fill:#00a2ba}</style></defs><title>Asset 1</title><g id="Layer_2" data-name="Layer 2"><g id="Layer_1-2" data-name="Layer 1"><path d="M11,0H2.59A2.58,2.58,0,0,0,0,2.51V6.05A2.59,2.59,0,0,0,2.59,8.57h.26v1.75A.83.83,0,0,0,4.27,11l2.52-2.4H11a2.52,2.52,0,0,0,2.52-2.52V2.51A2.52,2.52,0,0,0,11,0Zm1.81,6.05A1.81,1.81,0,0,1,11,7.85H6.65A.36.36,0,0,0,6.4,8L3.78,10.44c-.06.06-.21.05-.21-.13V8.21a.36.36,0,0,0-.36-.36H2.59A1.87,1.87,0,0,1,.71,6.05V2.51A1.86,1.86,0,0,1,2.59.71H11a1.8,1.8,0,0,1,1.81,1.79Z" class="cls-1"/><path d="M10.3,5H3.22a.36.36,0,0,0,0,.71H10.3a.36.36,0,0,0,0-.71Z" class="cls-1"/><path d="M10.3,2.86H3.22a.36.36,0,0,0,0,.71H10.3a.36.36,0,0,0,0-.71Z" class="cls-1"/></g></g></svg>