<svg xmlns="http://www.w3.org/2000/svg" viewBox="0 0 16.22 14.87"><defs><style>.cls-1{fill:#00a2ba}</style></defs><g id="Layer_2" data-name="Layer 2"><g id="Layer_1-2" data-name="Layer 1"><path class="cls-1" d="M7.1 2a.34.34 0 00-.34.34v5.47a.34.34 0 00.13.27l2.69 2.1a.34.34 0 00.21.07.34.34 0 00.21-.62l-2.56-2V2.38A.34.34 0 007.1 2zM13.37 3.86a.36.36 0 00.19-.06.35.35 0 00.09-.48.31.31 0 00-.45-.06.37.37 0 00-.08.5.32.32 0 00.25.1zM13.69 4.86a.34.34 0 00.32.22h.12a.34.34 0 00.19-.44v-.07a.31.31 0 00-.43-.15.37.37 0 00-.2.44zM12.54 2.8a.34.34 0 00.25-.57l-.06-.06a.31.31 0 00-.45 0 .37.37 0 000 .5.34.34 0 00.26.13zM8.88.81L9 .83a.34.34 0 00.08-.68H9a.34.34 0 00-.4.26.34.34 0 00.28.4zM10.12 1.2h.18a.34.34 0 00.31-.2.36.36 0 00-.2-.45.34.34 0 10-.26.63zM11.5 1.92a.34.34 0 00.2-.62h-.06a.31.31 0 00-.44.11.37.37 0 00.11.49.34.34 0 00.19.02z"/><path class="cls-1" d="M16.12 8.21l-1.35-1.35a.28.28 0 00-.19-.09h-.25l-1.59 1.42a.34.34 0 10.45.52l1-.85a6.75 6.75 0 01-6.74 6.33A6.75 6.75 0 012.71 2.61 6.65 6.65 0 017.59.68h.08a.34.34 0 000-.68h-.09a7.43 7.43 0 10-.15 14.87 7.43 7.43 0 007.42-7l.79.79a.34.34 0 10.48-.48z"/></g></g></svg>