<svg xmlns="http://www.w3.org/2000/svg" viewBox="0 0 13.53 13.53"><defs><style>.cls-1{fill:#00a2ba;}</style></defs><title>Asset 1</title><g id="Layer_2" data-name="Layer 2"><g id="Layer_1-2" data-name="Layer 1"><path class="cls-1" d="M6.76,4.08A2.69,2.69,0,1,0,9.45,6.77,2.69,2.69,0,0,0,6.76,4.08Zm0,4.8A2.11,2.11,0,1,1,8.87,6.77,2.11,2.11,0,0,1,6.76,8.88Z"/><path class="cls-1" d="M13.47,5.83a.29.29,0,0,0-.25-.25l-1.56-.2a5.05,5.05,0,0,0-.45-1.09l1-1.25a.29.29,0,0,0,0-.35,6.82,6.82,0,0,0-1.32-1.32.29.29,0,0,0-.35,0l-1.25,1a5.05,5.05,0,0,0-1.09-.45L7.95.32A.29.29,0,0,0,7.7.07a6.62,6.62,0,0,0-1.87,0,.29.29,0,0,0-.25.25l-.2,1.56a5.05,5.05,0,0,0-1.09.45L3,1.37a.29.29,0,0,0-.35,0A6.9,6.9,0,0,0,1.37,2.69a.29.29,0,0,0,0,.35l1,1.25a5,5,0,0,0-.45,1.09l-1.56.2a.29.29,0,0,0-.25.25,6.82,6.82,0,0,0,0,1.87.29.29,0,0,0,.25.25l1.56.2a5,5,0,0,0,.45,1.09l-1,1.25a.29.29,0,0,0,0,.35,6.89,6.89,0,0,0,1.32,1.32.29.29,0,0,0,.35,0l1.25-1a5,5,0,0,0,1.09.45l.2,1.56a.29.29,0,0,0,.25.25,6.66,6.66,0,0,0,1.87,0,.29.29,0,0,0,.25-.25l.2-1.56a5.05,5.05,0,0,0,1.09-.45l1.25,1a.29.29,0,0,0,.35,0,6.82,6.82,0,0,0,1.32-1.32.29.29,0,0,0,0-.35l-1-1.25a5.05,5.05,0,0,0,.45-1.09l1.56-.2a.29.29,0,0,0,.25-.25A6.62,6.62,0,0,0,13.47,5.83ZM12.92,7.4l-1.53.2a.29.29,0,0,0-.24.22,4.47,4.47,0,0,1-.53,1.29.29.29,0,0,0,0,.33l.94,1.23a6.24,6.24,0,0,1-.9.9l-1.23-.94a.29.29,0,0,0-.33,0,4.47,4.47,0,0,1-1.29.54.29.29,0,0,0-.22.24l-.2,1.53a6,6,0,0,1-1.27,0l-.2-1.53a.29.29,0,0,0-.22-.24,4.47,4.47,0,0,1-1.29-.54.29.29,0,0,0-.33,0l-1.23.94a6.34,6.34,0,0,1-.9-.9l.94-1.23a.29.29,0,0,0,0-.33,4.45,4.45,0,0,1-.54-1.29.29.29,0,0,0-.24-.22L.61,7.4a6.23,6.23,0,0,1,0-1.27l1.53-.2a.29.29,0,0,0,.24-.22,4.45,4.45,0,0,1,.54-1.29.29.29,0,0,0,0-.33L2,2.86a6.34,6.34,0,0,1,.9-.9l1.23.94a.29.29,0,0,0,.33,0,4.47,4.47,0,0,1,1.29-.54.29.29,0,0,0,.22-.24L6.13.61A6,6,0,0,1,7.4.61l.2,1.53a.29.29,0,0,0,.22.24,4.47,4.47,0,0,1,1.29.54.29.29,0,0,0,.33,0L10.67,2a6.24,6.24,0,0,1,.9.9l-.94,1.23a.29.29,0,0,0,0,.33,4.48,4.48,0,0,1,.53,1.29.29.29,0,0,0,.24.22l1.53.2A6,6,0,0,1,12.92,7.4Z"/></g></g></svg>