<svg xmlns="http://www.w3.org/2000/svg" viewBox="0 0 15.78 13.45"><defs><style>.cls-1{fill:#00a2ba;}</style></defs><title>Asset 2</title><g id="Layer_2" data-name="Layer 2"><g id="Layer_1-2" data-name="Layer 1"><path class="cls-1" d="M15.69.4a.34.34,0,0,0-.24-.11L5.59,0a.33.33,0,0,0-.34.31c0,.05-.37,5.43-1.72,8.32a.33.33,0,0,0,.6.28C5.35,6.29,5.79,1.9,5.89.68l9.19.27c-.51,5.56-1.76,11.53-3.37,11.83h-.17c-.62-.05-1.39-1-2.2-2.66A.33.33,0,0,0,9,9.93L.34,9.73a.36.36,0,0,0-.26.12.33.33,0,0,0-.07.28c0,.13.71,3.16,3.16,3.22s7.4.09,8.32.09h.1l.24,0c2.69-.49,3.7-9.9,3.95-12.78A.33.33,0,0,0,15.69.4ZM3.19,12.69c-1.45,0-2.15-1.53-2.4-2.28l8,.19a8.5,8.5,0,0,0,1.42,2.18C8.41,12.76,5.15,12.73,3.19,12.69Z"/><path class="cls-1" d="M12.62,3.78h0a.33.33,0,0,0,0-.67l-5-.18a.33.33,0,0,0,0,.67Z"/><path class="cls-1" d="M6.9,5.53a.33.33,0,0,0,.32.34l4.7.17h0a.33.33,0,0,0,0-.67l-4.7-.17A.33.33,0,0,0,6.9,5.53Z"/><path class="cls-1" d="M6.31,7.81a.33.33,0,0,0,.32.34l2.68.09h0a.33.33,0,0,0,0-.67L6.65,7.49A.34.34,0,0,0,6.31,7.81Z"/></g></g></svg>