<svg xmlns="http://www.w3.org/2000/svg" viewBox="0 0 200.4 200"><path d="M193.5 80.3l-15.1-1.2-8.2-19.9 9.8-11.5c2.4-2.8 2.2-7-.4-9.6l-17.9-17.9c-1.4-1.4-3.2-2.1-5-2.1-1.6 0-3.2.6-4.6 1.7l-11.5 9.8-19.9-8.2-1.2-15.1c-.3-3.7-3.3-6.5-7-6.5H87.4c-3.7 0-6.7 2.8-7 6.5l-1.2 15.1-19.9 8.2L47.8 20c-1.3-1.1-2.9-1.7-4.6-1.7-1.8 0-3.6.7-5 2.1L20.4 38.2c-2.6 2.6-2.8 6.8-.4 9.6l9.8 11.5-8.2 19.9-15.1 1.1c-3.7.3-6.5 3.3-6.5 7v25.3c0 3.7 2.8 6.7 6.5 7l15.1 1.2 8.2 19.9-9.8 11.5c-2.4 2.8-2.2 7 .4 9.6l17.9 17.9c1.4 1.4 3.2 2.1 5 2.1 1.6 0 3.2-.6 4.6-1.7l11.5-9.8 19.9 8.2 1.2 15.1c.3 3.7 3.3 6.5 7 6.5h25.3c3.7 0 6.7-2.8 7-6.5l1.2-15.1 19.9-8.2 11.5 9.8c1.3 1.1 2.9 1.7 4.6 1.7 1.8 0 3.6-.7 5-2.1l17.9-17.9c2.6-2.6 2.8-6.8.4-9.6l-9.8-11.5 8.2-19.9 15.1-1.2c3.7-.3 6.5-3.3 6.5-7V87.4c-.3-3.7-3.1-6.8-6.8-7.1zM132.1 100c0 17.7-14.4 32.1-32.1 32.1-17.7 0-32.1-14.4-32.1-32.1S82.3 67.9 100 67.9c17.7 0 32.1 14.4 32.1 32.1z" fill="#edf2f6"/></svg>