<svg xmlns="http://www.w3.org/2000/svg" xmlns:xlink="http://www.w3.org/1999/xlink" id="Layer_1" x="0" y="0" version="1.1" viewBox="0 0 206 28.4" xml:space="preserve" style="enable-background:new 0 0 206 28.4"><style type="text/css">.st0{fill:#fff}</style><title>Asset 2</title><g id="Layer_2"><g id="Layer_1-2"><path d="M49.5,5.3c3.4,1.9,5.4,5.4,5.4,9.2c0,3.8-2,7.4-5.4,9.2c-1.7,0.9-3.6,1.4-5.6,1.4h-8.5V3.9H44 C45.9,3.9,47.8,4.4,49.5,5.3z M48.5,22.1c2.7-1.5,4.4-4.4,4.3-7.6c0-1.6-0.4-3.1-1.2-4.4c-0.8-1.3-1.9-2.4-3.2-3.2 c-1.4-0.8-2.9-1.2-4.5-1.2h-6.4v17.5H44C45.6,23.3,47.1,22.9,48.5,22.1z" class="st0"/><path d="M61.2,3.6c0.3,0.3,0.4,0.6,0.4,1c0,0.4-0.1,0.7-0.4,1C61,5.9,60.6,6,60.2,6c-0.4,0-0.7-0.2-1-0.4 c-0.3-0.3-0.4-0.6-0.4-1c0-0.8,0.6-1.4,1.4-1.4c0,0,0,0,0,0C60.6,3.2,61,3.3,61.2,3.6z M59.2,9.2h2v15.9h-2V9.2z" class="st0"/><path d="M64.3,9.2h2.2l5.3,13.9L77,9.2h2.1l-6.3,15.9h-2.1L64.3,9.2z" class="st0"/><path d="M84.1,3.6c0.3,0.3,0.4,0.6,0.4,1c0,0.4-0.1,0.7-0.4,1c-0.3,0.3-0.6,0.4-1,0.4c-0.4,0-0.7-0.2-1-0.4 c-0.3-0.3-0.4-0.6-0.4-1c0-0.8,0.6-1.4,1.4-1.4c0,0,0,0,0,0C83.5,3.2,83.9,3.3,84.1,3.6z M82.1,9.2h2v15.9h-2V9.2z" class="st0"/><path d="M87.3,3.9h17.4v3.6h-6.6v17.7H94V7.5h-6.7V3.9z" class="st0"/><path d="M116.9,9.8c1.3,0.7,2.3,1.7,3,2.9c0.7,1.3,1.1,2.8,1.1,4.3c0,1.5-0.3,3-1.1,4.4c-0.7,1.2-1.7,2.3-3,2.9 c-1.4,0.7-2.9,1-4.5,1c-1.6,0-3.1-0.3-4.5-1c-1.3-0.7-2.3-1.7-3-2.9c-0.8-1.3-1.1-2.8-1.1-4.4c0-1.5,0.3-3,1.1-4.3 c0.7-1.2,1.7-2.2,3-2.9c1.4-0.7,2.9-1,4.5-1C114,8.7,115.5,9.1,116.9,9.8z M109.1,13.5c-0.9,1-1.3,2.3-1.3,3.6 c-0.1,1.3,0.4,2.6,1.3,3.6c0.9,0.9,2.1,1.4,3.3,1.4c1.2,0,2.4-0.5,3.3-1.4c0.9-1,1.3-2.3,1.3-3.6c0.1-1.3-0.4-2.6-1.3-3.6 c-0.8-0.9-2-1.4-3.3-1.4C111.2,12.1,110,12.6,109.1,13.5z" class="st0"/><path d="M136,9.8c1.3,0.7,2.3,1.7,3,2.9c0.7,1.3,1.1,2.8,1.1,4.3c0,1.5-0.4,3-1.1,4.4c-0.7,1.2-1.7,2.3-3,2.9 c-1.4,0.7-2.9,1-4.5,1c-1.6,0-3.1-0.3-4.5-1c-1.3-0.7-2.3-1.7-3-2.9c-0.7-1.3-1.1-2.8-1.1-4.4c0-1.5,0.3-3,1.1-4.3 c0.7-1.2,1.7-2.2,3-2.9c1.4-0.7,2.9-1,4.5-1C133.1,8.7,134.6,9.1,136,9.8z M128.2,13.5c-0.9,1-1.3,2.3-1.3,3.6 c-0.1,1.3,0.4,2.6,1.3,3.6c0.9,0.9,2.1,1.4,3.4,1.4c1.2,0,2.4-0.5,3.3-1.4c0.9-1,1.3-2.3,1.3-3.6c0.1-1.3-0.4-2.6-1.3-3.6 c-0.8-0.9-2-1.4-3.3-1.4C130.3,12.1,129.1,12.6,128.2,13.5z" class="st0"/><path d="M143.7,2.6h4v22.6h-4V2.6z" class="st0"/><path d="M166.3,9.8c1.2,0.7,2.1,1.7,2.7,2.9c0.7,1.3,1,2.8,1,4.4c0,1.5-0.3,3-0.9,4.3c-0.6,1.2-1.5,2.2-2.7,2.9 c-1.2,0.7-2.6,1-4,1c-1.1,0-2.2-0.2-3.2-0.7c-0.9-0.5-1.7-1.2-2.3-2.1v2.6h-4V2.6h4v9c0.6-0.9,1.3-1.6,2.3-2.1 c1-0.5,2.1-0.7,3.2-0.7C163.7,8.8,165.1,9.1,166.3,9.8z M164.7,20.5c0.9-1,1.3-2.2,1.3-3.5c0-1.3-0.4-2.6-1.3-3.5 c-1.8-1.8-4.8-1.8-6.6,0c0,0,0,0,0,0c-0.9,1-1.3,2.2-1.3,3.5c-0.1,1.3,0.4,2.6,1.3,3.6c0.9,0.9,2.1,1.4,3.3,1.4 C162.7,22,163.9,21.4,164.7,20.5z" class="st0"/><path d="M185,9.8c1.3,0.7,2.3,1.7,3,2.9c0.7,1.3,1.1,2.8,1.1,4.3c0,1.5-0.4,3-1.1,4.4c-0.7,1.2-1.7,2.3-3,2.9 c-1.4,0.7-2.9,1-4.5,1c-1.6,0-3.1-0.3-4.5-1c-1.3-0.7-2.3-1.7-3-2.9c-0.7-1.3-1.1-2.8-1.1-4.4c0-1.5,0.3-3,1.1-4.3 c0.7-1.2,1.7-2.2,3-2.9c1.4-0.7,2.9-1,4.5-1C182.1,8.7,183.6,9.1,185,9.8z M177.2,13.5c-0.9,1-1.3,2.3-1.3,3.6 c-0.1,1.3,0.4,2.6,1.3,3.6c0.9,0.9,2.1,1.4,3.4,1.4c1.2,0,2.4-0.5,3.3-1.4c0.9-1,1.3-2.3,1.3-3.6c0.1-1.3-0.4-2.6-1.3-3.6 c-0.8-0.9-2-1.4-3.3-1.4C179.3,12.1,178.1,12.6,177.2,13.5z" class="st0"/><path d="M189.9,8.9h4.6l3.4,5.3l3.5-5.3h4.4l-5.2,7.9l5.5,8.3h-4.6l-3.6-5.7l-3.9,5.7h-4.4l5.7-8.3L189.9,8.9z" class="st0"/><path d="M12.4,27.9c-0.3,0-0.5-0.2-0.5-0.5L11.7,25l-3.4-1.4l-1.9,1.6c-0.1,0.1-0.2,0.1-0.3,0.1 c-0.1,0-0.3-0.1-0.3-0.1l-2.5-2.5c-0.2-0.2-0.2-0.5,0-0.7l1.6-1.9l-1.4-3.4L1,16.5c-0.3,0-0.5-0.2-0.5-0.5v-3.6 c0-0.3,0.2-0.5,0.5-0.5l2.4-0.2l1.4-3.4L3.2,6.5C3,6.3,3,6,3.2,5.8l2.6-2.5c0.2-0.2,0.5-0.2,0.7,0l1.9,1.6l3.4-1.4L11.9,1 c0-0.3,0.2-0.5,0.5-0.5H16c0.3,0,0.5,0.2,0.5,0.5l0.2,2.4l3.4,1.4l1.9-1.6c0.1-0.1,0.2-0.1,0.3-0.1c0.1,0,0.3,0.1,0.4,0.2l2.5,2.5 c0.2,0.2,0.2,0.5,0,0.7l-1.6,1.9l1.4,3.4l2.4,0.2c0.3,0,0.5,0.2,0.5,0.5V16c0,0.3-0.2,0.5-0.5,0.5L25,16.7l-1.4,3.4l1.6,1.9 c0.2,0.2,0.2,0.5,0,0.7l-2.5,2.5c-0.2,0.2-0.5,0.2-0.7,0l-1.9-1.6L16.7,25l-0.2,2.4c0,0.3-0.2,0.5-0.5,0.5L12.4,27.9z M14.2,9.1 c-2.8,0-5.1,2.3-5.1,5.1s2.3,5.1,5.1,5.1s5.1-2.3,5.1-5.1S17,9.1,14.2,9.1L14.2,9.1z" class="st0"/><path d="M16,1l0.2,2.8l4,1.6l2.1-1.8l2.5,2.5L23,8.2l1.6,3.9l2.8,0.2V16l-2.8,0.2L23,20.1l1.8,2.1l-2.5,2.5L20.1,23 l-3.9,1.6L16,27.4h-3.6l-0.2-2.8L8.2,23l-2.1,1.8l-2.5-2.5l1.8-2.1l-1.6-3.9L1,16v-3.6l2.8-0.2l1.6-3.9L3.6,6.1l2.5-2.5l2.1,1.8 l3.9-1.6L12.4,1H16 M14.2,19.8c3.1,0,5.6-2.5,5.6-5.6c0-3.1-2.5-5.6-5.6-5.6s-5.6,2.5-5.6,5.6S11.1,19.8,14.2,19.8 M16,0h-3.6 c-0.5,0-1,0.4-1,0.9l-0.2,2.1L8.4,4.2L6.8,2.8c-0.4-0.3-1-0.3-1.4,0L2.9,5.4c-0.4,0.4-0.4,1,0,1.4l1.4,1.6l-1.2,2.8l-2.1,0.2 c-0.5,0-0.9,0.5-0.9,1V16c0,0.5,0.4,1,0.9,1l2.1,0.2L4.2,20l-1.4,1.6c-0.4,0.4-0.3,1,0.1,1.4l2.5,2.5c0.4,0.4,1,0.4,1.4,0l1.6-1.4 l2.8,1.2l0.2,2.1c0,0.5,0.5,0.9,1,0.9H16c0.5,0,1-0.4,1-0.9l0.2-2.1l2.8-1.2l1.6,1.4c0.4,0.3,1,0.3,1.4,0l2.5-2.5 c0.4-0.4,0.4-1,0-1.4L24.2,20l1.2-2.8l2.1-0.2c0.5,0,0.9-0.5,0.9-1v-3.6c0-0.5-0.4-1-0.9-1l-2.1-0.2l-1.2-2.8l1.4-1.6 c0.3-0.4,0.3-1,0-1.4L23,2.9c-0.4-0.4-1-0.4-1.4,0L20,4.2l-2.9-1.2L17,0.9C17,0.4,16.5,0,16,0z M14.2,18.8c-2.5,0-4.6-2-4.6-4.6 s2-4.6,4.6-4.6s4.6,2,4.6,4.6l0,0C18.8,16.7,16.7,18.8,14.2,18.8z" class="st0"/></g></g></svg>