<svg xmlns="http://www.w3.org/2000/svg" xmlns:xlink="http://www.w3.org/1999/xlink" id="Layer_1" x="0" y="0" version="1.1" viewBox="0 0 200.4 200" xml:space="preserve" style="enable-background:new 0 0 200.4 200"><style type="text/css">.st0{fill:#edf2f6}</style><path d="M193.5,80.3l-15.1-1.2l-8.2-19.9l9.8-11.5c2.4-2.8,2.2-7-0.4-9.6l-17.9-17.9c-1.4-1.4-3.2-2.1-5-2.1	c-1.6,0-3.2,0.6-4.6,1.7l-11.5,9.8l-19.9-8.2l-1.2-15.1c-0.3-3.7-3.3-6.5-7-6.5H87.4c-3.7,0-6.7,2.8-7,6.5l-1.2,15.1l-19.9,8.2	L47.8,20c-1.3-1.1-2.9-1.7-4.6-1.7c-1.8,0-3.6,0.7-5,2.1L20.4,38.2c-2.6,2.6-2.8,6.8-0.4,9.6l9.8,11.5l-8.2,19.9L6.5,80.3	c-3.7,0.3-6.5,3.3-6.5,7v25.3c0,3.7,2.8,6.7,6.5,7l15.1,1.2l8.2,19.9L20,152.2c-2.4,2.8-2.2,7,0.4,9.6l17.9,17.9	c1.4,1.4,3.2,2.1,5,2.1c1.6,0,3.2-0.6,4.6-1.7l11.5-9.8l19.9,8.2l1.2,15.1c0.3,3.7,3.3,6.5,7,6.5h25.3c3.7,0,6.7-2.8,7-6.5l1.2-15.1	l19.9-8.2l11.5,9.8c1.3,1.1,2.9,1.7,4.6,1.7c1.8,0,3.6-0.7,5-2.1l17.9-17.9c2.6-2.6,2.8-6.8,0.4-9.6l-9.8-11.5l8.2-19.9l15.1-1.2	c3.7-0.3,6.5-3.3,6.5-7V87.4C200,83.7,197.2,80.6,193.5,80.3z M132.1,100c0,17.7-14.4,32.1-32.1,32.1c-17.7,0-32.1-14.4-32.1-32.1	S82.3,67.9,100,67.9C117.7,67.9,132.1,82.3,132.1,100z" class="st0"/></svg>