<?xml version="1.0" encoding="utf-8"?>
<!-- Generator: Adobe Illustrator 21.1.0, SVG Export Plug-In . SVG Version: 6.00 Build 0)  -->
<svg version="1.1" id="Layer_1" xmlns="http://www.w3.org/2000/svg" xmlns:xlink="http://www.w3.org/1999/xlink" x="0px" y="0px"
	 viewBox="0 0 100 50" style="enable-background:new 0 0 100 50;" xml:space="preserve">
<style type="text/css">
	.st0{fill:#FFFFFF;}
</style>
<g>
	<path class="st0" d="M48.6,42.6l-3.7-8.4H26.7l-3.6,8.4h-5L33.4,8h4.9l15.3,34.6H48.6z M28.5,29.9h14.5l-7.3-16.8L28.5,29.9z"/>
	<path class="st0" d="M76.7,42.6v-3.7c-1.9,2.6-5,3.9-9.1,3.9c-1.8,0-3.4-0.3-4.8-1c-1.4-0.7-2.4-1.6-3.2-2.9
		c-0.7-1.2-1.1-2.6-1.1-4.1c0-2.3,0.9-4.2,2.6-5.6c1.7-1.4,4.1-2.1,7.2-2.1h8.3v-1.2c0-1.8-0.6-3.3-1.7-4.3c-1.1-1-2.8-1.5-5-1.5
		c-2.6,0-5.3,0.9-8.1,2.8L60,19.8c1.9-1.2,3.6-2.1,5.2-2.6c1.6-0.5,3.5-0.8,5.7-0.8c3.3,0,5.8,0.8,7.6,2.4c1.8,1.6,2.7,3.8,2.7,6.7
		l0,17.2H76.7z M74,37.4c1.5-1,2.4-2.4,2.7-4.1v-2.6H69c-2.1,0-3.6,0.3-4.6,0.9c-1,0.6-1.5,1.6-1.5,3c0,1.4,0.5,2.4,1.5,3.2
		c1,0.8,2.4,1.2,4.1,1.2C70.7,39,72.5,38.5,74,37.4z"/>
</g>
</svg>
