<svg xmlns="http://www.w3.org/2000/svg" xmlns:xlink="http://www.w3.org/1999/xlink" id="Layer_1" x="0" y="0" version="1.1" viewBox="0 0 100 50" xml:space="preserve" style="enable-background:new 0 0 100 50"><style type="text/css">.st0{fill:#fff}</style><g><path d="M40.9,42.6v-3.7c-1.9,2.6-5,3.9-9.1,3.9c-1.8,0-3.4-0.3-4.8-1c-1.4-0.7-2.4-1.6-3.2-2.9 c-0.7-1.2-1.1-2.6-1.1-4.1c0-2.3,0.9-4.2,2.6-5.6c1.7-1.4,4.1-2.1,7.2-2.1h8.3v-1.2c0-1.8-0.6-3.3-1.7-4.3c-1.1-1-2.8-1.5-5-1.5 c-2.6,0-5.3,0.9-8.1,2.8l-1.9-3.2c1.9-1.2,3.6-2.1,5.2-2.6c1.6-0.5,3.5-0.8,5.7-0.8c3.3,0,5.8,0.8,7.6,2.4c1.8,1.6,2.7,3.8,2.7,6.7 l0,17.2H40.9z M38.2,37.4c1.5-1,2.4-2.4,2.7-4.1v-2.6h-7.7c-2.1,0-3.6,0.3-4.6,0.9c-1,0.6-1.5,1.6-1.5,3c0,1.4,0.5,2.4,1.5,3.2 c1,0.8,2.4,1.2,4.1,1.2C34.8,39,36.7,38.5,38.2,37.4z" class="st0"/><path d="M72.1,42.6v-3.7c-1.9,2.6-5,3.9-9.1,3.9c-1.8,0-3.4-0.3-4.8-1c-1.4-0.7-2.4-1.6-3.2-2.9 c-0.7-1.2-1.1-2.6-1.1-4.1c0-2.3,0.9-4.2,2.6-5.6c1.7-1.4,4.1-2.1,7.2-2.1H72v-1.2c0-1.8-0.6-3.3-1.7-4.3c-1.1-1-2.8-1.5-5-1.5 c-2.6,0-5.3,0.9-8.1,2.8l-1.9-3.2c1.9-1.2,3.6-2.1,5.2-2.6c1.6-0.5,3.5-0.8,5.7-0.8c3.3,0,5.8,0.8,7.6,2.4c1.8,1.6,2.7,3.8,2.7,6.7 l0,17.2H72.1z M69.3,37.4c1.5-1,2.4-2.4,2.7-4.1v-2.6h-7.7c-2.1,0-3.6,0.3-4.6,0.9c-1,0.6-1.5,1.6-1.5,3c0,1.4,0.5,2.4,1.5,3.2 c1,0.8,2.4,1.2,4.1,1.2C66,39,67.8,38.5,69.3,37.4z" class="st0"/></g></svg>